<?xml version="1.0" encoding="utf-8"?>
<!-- Generator: Adobe Illustrator 26.3.1, SVG Export Plug-In . SVG Version: 6.00 Build 0)  -->
<svg version="1.1" id="Calque_1" xmlns="http://www.w3.org/2000/svg" xmlns:xlink="http://www.w3.org/1999/xlink" x="0px" y="0px"
	 viewBox="0 0 255.12 255.12" style="enable-background:new 0 0 255.12 255.12;" xml:space="preserve">
<style type="text/css">
	.st0{fill:#020203;}
	.st1{fill:#4F5D6E;}
</style>
<path class="st0" d="M95.55,99.62c0.17-0.34,0.26-0.75,0.26-1.23c0-0.53-0.17-0.98-0.5-1.35c-0.26-0.3-0.62-0.53-1.04-0.72
	c0.27-0.16,0.52-0.35,0.7-0.61c0.27-0.37,0.41-0.83,0.41-1.38c0-0.74-0.28-1.3-0.83-1.68s-1.29-0.56-2.22-0.56h-2.62v8.93h2.97
	c0.4,0,0.78-0.05,1.15-0.14c0.37-0.09,0.71-0.24,1-0.45S95.38,99.95,95.55,99.62z M91.48,93.79h0.95c0.35,0,0.62,0.08,0.83,0.23
	c0.21,0.15,0.31,0.38,0.31,0.69c0,0.27-0.08,0.51-0.25,0.72s-0.42,0.32-0.77,0.32h-1.07V93.79z M93.81,98.95
	c-0.12,0.15-0.29,0.26-0.5,0.33s-0.44,0.1-0.7,0.1h-1.13v-1.94h1.01c0.25,0,0.49,0.03,0.72,0.08c0.23,0.05,0.42,0.15,0.56,0.28
	c0.15,0.13,0.22,0.33,0.22,0.59C94,98.61,93.93,98.8,93.81,98.95z M99.57,92.09h-1.76v8.93h1.76V92.09z M108.38,99.32h-4.5v-1.93
	h3.83v-1.7h-3.83v-1.9h4.33v-1.7h-6.09v8.93h6.26V99.32z M116.75,97.47l-6.23-5.73h-0.07v9.28h1.78l-0.04-5.28l6.24,5.64h0.05v-9.29
	h-1.77L116.75,97.47z M126.33,92.09l-1.91,5.03l-2.04-5.03h-2.11l4.08,9.34l4.08-9.34H126.33z M136.46,99.32h-4.5v-1.93h3.83v-1.7
	h-3.83v-1.9h4.33v-1.7h-6.09v8.93h6.26V99.32z M140.26,95.74l6.24,5.64h0.05v-9.29h-1.77l0.03,5.38l-6.23-5.73h-0.07v9.28h1.78
	L140.26,95.74z M150.71,100.68c0.55,0.29,1.15,0.43,1.81,0.43c0.67,0,1.28-0.14,1.83-0.43c0.55-0.29,0.99-0.68,1.31-1.19
	c0.32-0.51,0.49-1.09,0.49-1.74v-5.66h-1.73v5.63c0,0.28-0.08,0.55-0.25,0.81s-0.39,0.47-0.67,0.63c-0.28,0.16-0.61,0.24-0.97,0.24
	c-0.33,0-0.64-0.08-0.92-0.24c-0.28-0.16-0.5-0.37-0.67-0.63s-0.25-0.53-0.25-0.81v-5.63h-1.76v5.66c0,0.66,0.16,1.24,0.48,1.74
	C149.73,100,150.17,100.4,150.71,100.68z M164.78,99.32h-4.5v-1.93h3.83v-1.7h-3.83v-1.9h4.33v-1.7h-6.09v8.93h6.26V99.32z
	 M88.12,162.85c-0.16,0.07-0.35,0.1-0.57,0.1c-0.23,0-0.43-0.04-0.61-0.12c-0.18-0.08-0.33-0.18-0.46-0.32s-0.23-0.3-0.3-0.49
	s-0.1-0.39-0.1-0.61c0-0.22,0.04-0.42,0.12-0.61c0.08-0.19,0.18-0.35,0.31-0.5s0.29-0.25,0.46-0.33s0.36-0.12,0.55-0.12
	c0.2,0,0.39,0.04,0.55,0.11c0.16,0.07,0.3,0.15,0.41,0.22l0.25-0.58c-0.15-0.09-0.32-0.17-0.53-0.24c-0.21-0.07-0.44-0.1-0.7-0.1
	c-0.3,0-0.58,0.05-0.83,0.16c-0.25,0.11-0.47,0.26-0.66,0.45c-0.18,0.19-0.33,0.42-0.42,0.69c-0.1,0.27-0.15,0.56-0.15,0.87
	c0,0.29,0.05,0.55,0.14,0.81c0.1,0.25,0.23,0.48,0.42,0.67c0.18,0.19,0.4,0.35,0.66,0.46c0.26,0.11,0.55,0.17,0.88,0.17
	c0.2,0,0.38-0.01,0.54-0.06c0.16-0.04,0.31-0.09,0.43-0.15c0.12-0.06,0.21-0.11,0.28-0.16l-0.27-0.55
	C88.42,162.71,88.29,162.79,88.12,162.85z M92.56,161.1h-2.12v-1.78h-0.61v4.19h0.61v-1.81h2.12v1.81h0.62v-4.19h-0.62V161.1z
	 M95.89,159.13l-1.85,4.37h0.61l0.43-1.04h1.57l0.41,1.04h0.71l-1.84-4.37H95.89z M95.29,161.93l0.58-1.43l0.56,1.43H95.29z
	 M101.7,162.24l-3.04-3.07h-0.02v4.33h0.62l-0.01-2.88l3.05,3.03h0.01v-4.33h-0.61L101.7,162.24z M103.3,159.9h1.07v3.6h0.62v-3.6
	h1.1v-0.59h-2.79V159.9z M107.7,161.69h1.9v-0.59h-1.9v-1.2h2.13v-0.59h-2.74v4.19h2.82v-0.59h-2.21V161.69z M113.51,162
	c0,0.18-0.04,0.34-0.13,0.48c-0.09,0.14-0.2,0.26-0.35,0.34c-0.15,0.08-0.32,0.13-0.51,0.13c-0.18,0-0.35-0.04-0.5-0.13
	c-0.15-0.08-0.26-0.2-0.35-0.34c-0.09-0.14-0.13-0.3-0.13-0.48v-2.69h-0.62v2.7c0,0.31,0.07,0.58,0.21,0.81
	c0.14,0.23,0.33,0.41,0.57,0.53c0.24,0.13,0.51,0.19,0.81,0.19c0.29,0,0.56-0.06,0.81-0.19s0.44-0.3,0.58-0.53
	c0.14-0.23,0.21-0.5,0.21-0.81v-2.7h-0.61V162z M117.7,161.56c0.11-0.13,0.19-0.28,0.24-0.44c0.05-0.16,0.07-0.33,0.07-0.49
	c0-0.21-0.04-0.4-0.11-0.56c-0.07-0.16-0.18-0.3-0.31-0.41s-0.29-0.2-0.48-0.25c-0.19-0.06-0.39-0.09-0.61-0.09h-1.14v4.19h0.61V162
	h0.61c0.04,0,0.07-0.01,0.1-0.01l0.97,1.5h0.72l-1.04-1.66C117.47,161.76,117.61,161.68,117.7,161.56z M116.97,161.33
	c-0.11,0.05-0.24,0.07-0.39,0.07h-0.61v-1.5h0.63c0.15,0,0.27,0.02,0.37,0.07c0.1,0.05,0.18,0.11,0.24,0.19s0.1,0.16,0.13,0.25
	c0.03,0.09,0.04,0.17,0.04,0.25s-0.01,0.16-0.04,0.25c-0.02,0.09-0.07,0.17-0.13,0.24C117.15,161.22,117.07,161.28,116.97,161.33z
	 M121.57,161.4c-0.27,0.74-0.54,1.47-0.82,2.21h0.54c0.27-0.74,0.54-1.47,0.81-2.21s0.54-1.47,0.81-2.21h-0.53
	C122.12,159.93,121.84,160.66,121.57,161.4z M128,162.85c-0.16,0.07-0.35,0.1-0.57,0.1c-0.23,0-0.43-0.04-0.61-0.12
	c-0.18-0.08-0.33-0.18-0.46-0.32s-0.23-0.3-0.3-0.49s-0.1-0.39-0.1-0.61c0-0.22,0.04-0.42,0.12-0.61c0.08-0.19,0.18-0.35,0.31-0.5
	s0.29-0.25,0.46-0.33s0.36-0.12,0.55-0.12c0.2,0,0.39,0.04,0.55,0.11c0.16,0.07,0.3,0.15,0.41,0.22l0.25-0.58
	c-0.15-0.09-0.32-0.17-0.53-0.24c-0.21-0.07-0.44-0.1-0.7-0.1c-0.3,0-0.58,0.05-0.83,0.16c-0.25,0.11-0.47,0.26-0.66,0.45
	c-0.18,0.19-0.33,0.42-0.42,0.69c-0.1,0.27-0.15,0.56-0.15,0.87c0,0.29,0.05,0.55,0.14,0.81c0.1,0.25,0.23,0.48,0.42,0.67
	c0.18,0.19,0.4,0.35,0.66,0.46c0.26,0.11,0.55,0.17,0.88,0.17c0.2,0,0.38-0.01,0.54-0.06c0.16-0.04,0.31-0.09,0.43-0.15
	c0.12-0.06,0.21-0.11,0.28-0.16l-0.27-0.55C128.3,162.71,128.16,162.79,128,162.85z M133.09,159.9c-0.2-0.2-0.43-0.36-0.68-0.47
	c-0.26-0.11-0.54-0.17-0.83-0.17c-0.3,0-0.57,0.06-0.83,0.17c-0.26,0.11-0.48,0.27-0.68,0.47s-0.35,0.43-0.46,0.69
	c-0.11,0.26-0.16,0.53-0.16,0.82c0,0.3,0.05,0.59,0.16,0.84c0.11,0.26,0.26,0.48,0.46,0.68s0.42,0.34,0.68,0.45
	c0.26,0.11,0.54,0.16,0.83,0.16c0.3,0,0.57-0.05,0.83-0.16c0.26-0.11,0.48-0.26,0.68-0.46s0.36-0.42,0.47-0.68s0.17-0.54,0.17-0.83
	c0-0.29-0.06-0.56-0.17-0.82S133.29,160.1,133.09,159.9z M132.97,162.01c-0.08,0.19-0.18,0.35-0.32,0.49s-0.3,0.25-0.48,0.33
	s-0.38,0.12-0.58,0.12c-0.21,0-0.41-0.04-0.59-0.12c-0.18-0.08-0.34-0.19-0.48-0.33s-0.25-0.3-0.32-0.49
	c-0.08-0.19-0.12-0.39-0.12-0.6c0-0.21,0.04-0.41,0.11-0.6c0.07-0.19,0.18-0.35,0.31-0.5s0.3-0.25,0.48-0.33s0.38-0.12,0.59-0.12
	s0.41,0.04,0.59,0.12s0.34,0.19,0.48,0.33s0.24,0.31,0.32,0.49c0.08,0.19,0.12,0.39,0.12,0.6
	C133.08,161.62,133.05,161.83,132.97,162.01z M136.84,162.11l-2.07-2.94h-0.01v4.33h0.59v-2.47l1.47,2.04h0.01l1.51-2.14v2.57h0.61
	v-4.33h-0.01L136.84,162.11z M142.2,159.47c-0.22-0.1-0.49-0.16-0.8-0.16h-1.15v4.19h0.61V162h0.61c0.26,0,0.48-0.04,0.66-0.12
	c0.18-0.08,0.33-0.19,0.44-0.32c0.11-0.13,0.19-0.28,0.24-0.44c0.05-0.16,0.07-0.33,0.07-0.49c0-0.28-0.06-0.51-0.18-0.71
	S142.42,159.57,142.2,159.47z M142.23,160.88c-0.02,0.09-0.07,0.17-0.13,0.25c-0.06,0.08-0.14,0.14-0.25,0.19
	c-0.1,0.05-0.23,0.08-0.39,0.08h-0.61v-1.5h0.63c0.15,0,0.28,0.02,0.38,0.07c0.1,0.05,0.18,0.11,0.24,0.18s0.1,0.16,0.12,0.24
	c0.03,0.09,0.04,0.17,0.04,0.25C142.27,160.72,142.26,160.79,142.23,160.88z M147.24,159.9c-0.2-0.2-0.43-0.36-0.68-0.47
	c-0.26-0.11-0.54-0.17-0.83-0.17c-0.3,0-0.57,0.06-0.83,0.17c-0.26,0.11-0.48,0.27-0.68,0.47s-0.35,0.43-0.46,0.69
	c-0.11,0.26-0.16,0.53-0.16,0.82c0,0.3,0.05,0.59,0.16,0.84c0.11,0.26,0.26,0.48,0.46,0.68s0.42,0.34,0.68,0.45
	c0.26,0.11,0.54,0.16,0.83,0.16c0.3,0,0.57-0.05,0.83-0.16c0.26-0.11,0.48-0.26,0.68-0.46s0.36-0.42,0.47-0.68s0.17-0.54,0.17-0.83
	c0-0.29-0.06-0.56-0.17-0.82S147.44,160.1,147.24,159.9z M147.12,162.01c-0.08,0.19-0.18,0.35-0.32,0.49s-0.3,0.25-0.48,0.33
	s-0.38,0.12-0.58,0.12c-0.21,0-0.41-0.04-0.59-0.12c-0.18-0.08-0.34-0.19-0.48-0.33s-0.25-0.3-0.32-0.49
	c-0.08-0.19-0.12-0.39-0.12-0.6c0-0.21,0.04-0.41,0.11-0.6c0.07-0.19,0.18-0.35,0.31-0.5s0.3-0.25,0.48-0.33s0.38-0.12,0.59-0.12
	s0.41,0.04,0.59,0.12s0.34,0.19,0.48,0.33s0.24,0.31,0.32,0.49c0.08,0.19,0.12,0.39,0.12,0.6
	C147.24,161.62,147.2,161.83,147.12,162.01z M151.02,161.51c-0.1-0.09-0.22-0.17-0.34-0.23c-0.12-0.06-0.25-0.12-0.38-0.17
	c-0.15-0.05-0.29-0.11-0.43-0.18c-0.13-0.07-0.25-0.15-0.33-0.23c-0.08-0.09-0.13-0.19-0.13-0.31c0-0.17,0.06-0.3,0.19-0.4
	c0.13-0.1,0.3-0.15,0.51-0.15c0.16,0,0.32,0.03,0.49,0.08c0.17,0.06,0.33,0.12,0.47,0.19l0.24-0.47c-0.16-0.1-0.35-0.18-0.55-0.25
	s-0.45-0.1-0.74-0.1c-0.24,0-0.46,0.05-0.65,0.15c-0.19,0.1-0.34,0.23-0.44,0.4c-0.11,0.17-0.16,0.37-0.16,0.59
	c0,0.19,0.04,0.35,0.11,0.48s0.17,0.24,0.28,0.33c0.12,0.09,0.24,0.16,0.38,0.23s0.27,0.12,0.4,0.16c0.14,0.05,0.27,0.11,0.38,0.17
	c0.12,0.07,0.21,0.14,0.28,0.23c0.07,0.09,0.11,0.2,0.11,0.33c0,0.15-0.04,0.28-0.12,0.37c-0.08,0.09-0.19,0.16-0.31,0.21
	c-0.12,0.04-0.25,0.07-0.38,0.07c-0.12,0-0.24-0.02-0.37-0.05c-0.13-0.04-0.25-0.08-0.37-0.14c-0.12-0.06-0.22-0.12-0.32-0.19
	l-0.27,0.49c0.12,0.08,0.25,0.16,0.4,0.23s0.3,0.12,0.47,0.16c0.17,0.04,0.34,0.06,0.52,0.06c0.29,0,0.54-0.05,0.75-0.16
	c0.21-0.11,0.37-0.25,0.48-0.43c0.11-0.18,0.16-0.38,0.16-0.6c0-0.2-0.03-0.37-0.09-0.5C151.21,161.71,151.13,161.6,151.02,161.51z
	 M152.39,163.5H153v-4.19h-0.61V163.5z M153.99,159.9h1.07v3.6h0.62v-3.6h1.1v-0.59h-2.79V159.9z M158.39,161.69h1.9v-0.59h-1.9
	v-1.2h2.13v-0.59h-2.74v4.19h2.82v-0.59h-2.21V161.69z M164.2,162c0,0.18-0.04,0.34-0.13,0.48c-0.09,0.14-0.2,0.26-0.35,0.34
	c-0.15,0.08-0.32,0.13-0.51,0.13c-0.18,0-0.35-0.04-0.5-0.13c-0.15-0.08-0.26-0.2-0.35-0.34c-0.09-0.14-0.13-0.3-0.13-0.48v-2.69
	h-0.62v2.7c0,0.31,0.07,0.58,0.21,0.81c0.14,0.23,0.33,0.41,0.57,0.53c0.24,0.13,0.51,0.19,0.81,0.19c0.29,0,0.56-0.06,0.81-0.19
	s0.44-0.3,0.58-0.53c0.14-0.23,0.21-0.5,0.21-0.81v-2.7h-0.61V162z M168.02,161.84c0.15-0.08,0.28-0.16,0.38-0.27
	c0.11-0.13,0.19-0.28,0.24-0.44c0.05-0.16,0.07-0.33,0.07-0.49c0-0.21-0.04-0.4-0.11-0.56c-0.07-0.16-0.18-0.3-0.31-0.41
	s-0.29-0.2-0.48-0.25c-0.19-0.06-0.39-0.09-0.61-0.09h-1.14v4.19h0.61V162h0.61c0.04,0,0.07-0.01,0.1-0.01l0.97,1.5h0.72
	L168.02,161.84z M167.66,161.33c-0.11,0.05-0.24,0.07-0.39,0.07h-0.61v-1.5h0.63c0.15,0,0.27,0.02,0.37,0.07
	c0.1,0.05,0.18,0.11,0.24,0.19s0.1,0.16,0.13,0.25c0.03,0.09,0.04,0.17,0.04,0.25s-0.01,0.16-0.04,0.25
	c-0.02,0.09-0.07,0.17-0.13,0.24C167.85,161.22,167.77,161.28,167.66,161.33z"/>
<path class="st1" d="M73.98,136.02c0,1.42-0.18,2.58-0.67,3.52c-0.45,0.93-1.29,1.74-2.58,2.36c-1.29,0.67-2.72,0.98-4.27,0.98
	c-3.12,0-5.7-1.16-7.75-3.43c-2.09-2.31-3.16-6.19-3.16-11.67c0-5.52,1.11-9.35,3.25-11.49c2.18-2.18,4.68-3.25,7.61-3.25
	c2.81,0,5.17,0.94,7.12,2.81c0.58,0.49,1.07,1.11,1.51,1.74l1.02-1.07v-0.13c-2.63-2.98-6.06-4.45-10.15-4.45
	c-4.77,0-8.55,1.65-11.35,4.99c-2.8,3.34-4.19,7.21-4.19,11.62c0,4.5,1.47,8.19,4.36,11.09c2.94,2.89,6.63,4.36,11.04,4.36
	c2.23,0,4.59-0.49,7.21-1.47c0.85-0.31,2.09-1.25,3.16-2.18c1.47-1.2,2.27-3.03,2.27-4.94v-5.08h-4.45V136.02z M86.85,119.9v15.76
	v8.33h4.63v-8.33V119.9v-7.97h-4.63V119.9z M105.9,111.93h-4.63v8.06v15.76v8.24h22.31v-1.07H105.9V111.93z M130.3,119.9v15.76v8.33
	h4.63v-8.33V119.9v-7.97h-4.63V119.9z M156.61,111.93l-13.27,32.06h1.16l10.82-26.27c0,0,9.13,22.13,10.82,26.27h5.03l-13.62-32.06
	H156.61z M202.78,117.54v18.75l-18.21-24.36h-4.81v7.66v16.61v6.99h1.02v-6.99v-21.73l22.49,29.52h0.85v-26.09v-5.97h-1.34V117.54z
	 M192.91,24.95c-0.8-0.51-1.6-1.01-2.4-1.5l-14.2,22.84c0.81,0.49,1.61,0.99,2.41,1.5L192.91,24.95z M249.35,126.46h-26.93
	c0.01,0.47,0.02,0.94,0.02,1.42c0,0.47-0.01,0.94-0.02,1.42h26.93c0.01-0.47,0.02-0.94,0.02-1.42
	C249.37,127.4,249.36,126.93,249.35,126.46z M66.45,21.99l13.12,23.48c0.82-0.47,1.64-0.94,2.47-1.39L68.92,20.61
	C68.09,21.06,67.27,21.52,66.45,21.99z M234.43,69.39c-0.45-0.83-0.92-1.65-1.39-2.47l-23.46,13.16c0.47,0.82,0.94,1.64,1.39,2.47
	L234.43,69.39z M32.06,127.88c0-0.47,0.01-0.95,0.02-1.42H5.15c-0.01,0.47-0.02,0.94-0.02,1.42c0,0.47,0.01,0.94,0.02,1.42h26.93
	C32.07,128.82,32.06,128.35,32.06,127.88z M125.83,5.77V32.7c0.47-0.01,0.94-0.02,1.42-0.02s0.94,0.01,1.42,0.02V5.77
	c-0.47-0.01-0.94-0.02-1.42-0.02S126.31,5.77,125.83,5.77z M125.83,223.05v26.93c0.47,0.01,0.94,0.02,1.42,0.02s0.94-0.01,1.42-0.02
	v-26.93c-0.47,0.01-0.94,0.02-1.42,0.02S126.31,223.06,125.83,223.05z M172.46,211.67l13.12,23.48c0.83-0.45,1.65-0.91,2.47-1.39
	l-13.12-23.48C174.11,210.76,173.29,211.22,172.46,211.67z M207.4,179.25l22.85,14.17c0.51-0.8,1.01-1.6,1.5-2.41l-22.85-14.17
	C208.41,177.66,207.91,178.46,207.4,179.25z M20.07,186.36c0.45,0.83,0.92,1.65,1.39,2.47l23.46-13.16
	c-0.47-0.82-0.94-1.64-1.39-2.47L20.07,186.36z M61.59,230.8c0.8,0.51,1.6,1.01,2.4,1.5l14.2-22.84c-0.81-0.49-1.61-0.99-2.41-1.5
	L61.59,230.8z M22.76,64.73L45.61,78.9c0.49-0.81,0.98-1.61,1.49-2.41L24.25,62.32C23.75,63.12,23.25,63.92,22.76,64.73z"/>
</svg>
